<?xml version="1.0" standalone="no"?>
<!DOCTYPE svg PUBLIC "-//W3C//DTD SVG 20010904//EN"
 "http://www.w3.org/TR/2001/REC-SVG-20010904/DTD/svg10.dtd">
<svg version="1.0" xmlns="http://www.w3.org/2000/svg"
 width="260.000000pt" height="260.000000pt" viewBox="0 0 260.000000 260.000000"
 preserveAspectRatio="xMidYMid meet">
<metadata>
Created by potrace 1.11, written by Peter Selinger 2001-2013
</metadata>
<g transform="translate(0.000000,260.000000) scale(0.100000,-0.100000)"
fill="#000000" stroke="none">
<path d="M851 2009 c-190 -37 -402 -170 -490 -307 -84 -131 -73 -295 22 -341
55 -26 124 -32 118 -11 -21 77 -24 133 -9 209 21 106 50 164 113 227 46 46
131 101 140 92 2 -2 -12 -73 -31 -158 -76 -335 -52 -476 92 -546 49 -24 70
-28 138 -28 90 0 171 17 229 46 22 11 41 17 44 15 4 -4 -97 -495 -124 -604
l-5 -23 139 0 139 0 148 697 c81 384 150 708 153 721 5 22 5 22 -130 22 -75 0
-138 -3 -141 -8 -2 -4 -35 -151 -72 -327 -37 -176 -72 -326 -78 -334 -40 -51
-188 -70 -250 -32 -72 45 -71 94 5 445 27 126 49 235 49 242 0 16 -124 18
-199 3z"/>
<path d="M2003 1545 c-34 -7 -72 -19 -85 -26 -179 -93 -309 -333 -325 -600
-14 -229 71 -336 272 -347 154 -8 259 46 313 161 16 34 32 74 36 89 l6 28 -60
-39 c-101 -66 -202 -77 -248 -28 -25 26 -46 110 -38 152 6 29 10 31 73 43 96
18 184 64 252 130 63 63 96 121 113 203 39 187 -86 282 -309 234z m158 -117
c16 -30 5 -129 -20 -181 -45 -93 -132 -168 -215 -183 -37 -6 -38 -6 -31 17 49
174 101 284 156 334 46 42 92 47 110 13z"/>
</g>
</svg>
