<?xml version="1.0" standalone="no"?>
<!DOCTYPE svg PUBLIC "-//W3C//DTD SVG 20010904//EN"
 "http://www.w3.org/TR/2001/REC-SVG-20010904/DTD/svg10.dtd">
<svg version="1.0" xmlns="http://www.w3.org/2000/svg"
 width="260.000000pt" height="260.000000pt" viewBox="0 0 260.000000 260.000000"
 preserveAspectRatio="xMidYMid meet">
<metadata>
Created by potrace 1.11, written by Peter Selinger 2001-2013
</metadata>
<g transform="translate(0.000000,260.000000) scale(0.100000,-0.100000)"
fill="#000000" stroke="none">
<path d="M0 1300 l0 -1300 1300 0 1300 0 0 1300 0 1300 -1300 0 -1300 0 0
-1300z m1195 846 c61 -14 120 -28 132 -31 21 -5 19 -9 -32 -77 -68 -90 -250
-418 -266 -480 -11 -41 -11 -52 4 -83 38 -79 213 -118 367 -80 50 12 75 24 84
39 7 11 46 76 85 143 91 154 205 307 273 368 29 25 87 63 127 83 72 36 79 37
181 37 99 0 109 -2 173 -33 109 -54 149 -141 91 -199 -20 -20 -32 -24 -57 -19
-32 6 -52 25 -110 106 -40 55 -72 68 -126 52 -139 -42 -327 -325 -661 -991
-56 -112 -112 -221 -126 -242 -13 -21 -24 -40 -24 -43 0 -2 29 -15 64 -29 77
-31 179 -50 241 -45 25 2 45 2 45 0 0 -2 -7 -17 -16 -34 l-16 -30 -86 4 c-71
4 -115 14 -238 56 -152 52 -289 82 -370 82 -48 0 -50 3 -30 40 12 21 20 24 60
21 25 -1 70 5 100 13 85 25 134 88 256 328 56 110 100 202 97 204 -3 3 -22 1
-43 -5 -82 -22 -169 -24 -255 -6 -178 36 -289 134 -289 257 0 45 32 118 145
324 82 149 105 198 96 207 -7 7 -50 12 -114 12 -150 0 -270 -46 -382 -148 -99
-89 -154 -229 -134 -340 5 -29 12 -79 15 -113 6 -56 5 -62 -17 -78 -29 -20
-52 -20 -88 -1 -40 20 -56 67 -54 155 4 264 228 523 513 596 83 21 251 12 385
-20z"/>
</g>
</svg>
